<svg width="1606" height="923" viewBox="0 0 1606 923" fill="none" xmlns="http://www.w3.org/2000/svg">
<path d="M276.5 910C307 918.972 1552 908.028 1552 908.028C1596 908.028 1608 891.005 1584.5 860.528C1584.5 860.528 1417.5 689.528 1401 658.528C1384.5 627.528 1427.5 268.528 1375.5 249.028C1323.5 229.528 1242.5 425.528 1113.5 442.028C984.5 458.528 983 359.528 932.5 359.528C882 359.528 753 387.528 704 406.528C655 425.528 607.5 468.028 591.5 390.028C575.5 312.028 1046 303.029 1128 249.028C1210 195.027 1241 -15.4999 1165 12.499C1089 40.498 400.204 304.056 401 349.028C401.796 394 533 525.5 603.5 549.5C674 573.5 715.5 511.028 807 537C898.5 562.972 886.5 826 728 828.028C569.5 830.057 252.5 802.5 228.5 794C204.5 785.5 69.5 604 69.5 604C69.5 604 28.8358 559.882 16 586.5C5.00005 629.5 8.26717 735.031 20.9999 749.5C42.9999 774.5 246 901.028 276.5 910Z" stroke="#FF0909" stroke-width="18"/>
</svg>
