<svg width="1482" height="911" viewBox="0 0 1482 911" fill="none" xmlns="http://www.w3.org/2000/svg">
<path d="M9.5 713C9.5 713 8 834 18 864C28 894 49.7773 900.295 89 901.5H1398C1472 903 1491 843.5 1453 788L1358.5 674.5C1324.5 632.5 1285.58 624.443 1231 636.5C1231 636.5 765 773.5 711.5 788C658 802.5 644 689 711.5 636.5L877 478.5C910.714 453.172 928.321 446.768 969 463.5L1049.5 491.5C1187 527.5 1223 384 1129.5 332C1036 280 826.5 194.5 826.5 194.5C779.002 177.239 754.957 177.397 716.5 194.5L568 274C516.5 311 506.033 344.522 495.5 407.5C495.5 407.5 471.5 531 419.5 713C367.5 895 9.5 713 242 518.5L313 471C348.57 438.063 343 409.5 321.5 386.5C300 363.5 307.303 336.922 333 312.5L535.5 144.5C561 120 559 81.5 520.5 61.9999L392.5 15.9999C345.044 -0.056798 324.365 11.1761 296.5 61.9999L25.5 638C12.7003 664.645 9.26711 681.111 9.5 713Z" stroke="#FF0909" stroke-width="18"/>
</svg>
