<svg width="1564" height="1565" viewBox="0 0 1564 1565" fill="none" xmlns="http://www.w3.org/2000/svg">
<path d="M1488 945C1366 1035.5 799 1511.5 755 1541.5C711 1571.5 631.5 1556.5 669 1472C706.5 1387.5 679.5 1430 768 1278.5C856.5 1127 754.587 1037 738.5 1017C722.413 997 595 837.5 595 837.5C533.5 763.5 388 785 350.5 895C350.5 895 267 1115 243 1163C219 1211 182 1242.5 135.5 1208.5C89.0001 1174.5 80 1163 33.5 1134.5C-13 1106 22.5 1043.5 22.5 1043.5C22.5 1043.5 177.5 744.5 211.5 686.5C245.5 628.5 306 618 350.5 624.5C395 631 493.5 644.5 525.5 650.5C557.5 656.5 582.5 673 595 686.5C607.5 700 800.5 964 862.5 1025C924.5 1086 993 1044.5 961 959C929 873.5 620 165 607 95C594 25 623.5 9 700 9H925C995 9 991.5 67.5 944.5 95C897.5 122.5 854.5 137.5 846 219.5C837.5 301.5 849 401.5 860.5 466.5C872 531.5 954 601.5 1035.5 607.5C1117 613.5 1324 644.5 1435.5 665C1547 685.5 1610 854.5 1488 945Z" stroke="#FF0909" stroke-width="18"/>
</svg>
