<svg width="1612" height="597" viewBox="0 0 1612 597" fill="none" xmlns="http://www.w3.org/2000/svg">
<path d="M92.5 579.5L1394 588C1394 588 1602.5 571 1602.5 415.5C1602.5 260 1451 277 1372.5 277C1294 277 1324.5 173 1306.5 127.5C1288.5 82.0002 1181.5 -7.99982 1150 12.0002C1118.5 32.0002 1153.5 74.5002 1130.5 89.0002C1107.5 103.5 1005.5 17.0002 951.5 26.0002C897.5 35.0002 787.5 118 771 148C754.5 178 768 225 795.5 237C823 249 1226 339.5 1272 367C1318 394.5 1342 519 1258 519C1174 519 657.5 358.5 600.5 360C543.5 361.5 289.5 434.289 247 429.5C204.5 424.711 171 349 231 327C291 305 404 304.5 440.5 275.5C477 246.5 465.5 187 429.5 186C393.5 185 146.5 197 128 237C109.5 277 52.5 462 44.5 482.5C36.5 503 16.5 506 9.49999 547C2.49999 588 92.5 579.5 92.5 579.5Z" stroke="#FF0909" stroke-width="18"/>
</svg>
