<svg width="1458" height="1190" viewBox="0 0 1458 1190" fill="none" xmlns="http://www.w3.org/2000/svg">
<path d="M576.5 1100C600.5 1092.5 1211.5 799.496 1229 790.996C1246.5 782.496 1376.5 763.996 1409 738.496C1441.5 712.996 1461 664.996 1438 619.496C1415 573.996 1332.5 567.496 1281.5 573.496C1230.5 579.496 945 695.996 943.5 746.996C942 797.996 1013 792.496 986.5 828.496C960 864.496 678.5 977.996 626 987.996C573.5 997.996 518.5 962.496 576.5 904.996C634.5 847.496 785.5 731.996 809.5 702.496C833.5 672.996 887 619.996 891 546.496C895 472.996 862.5 332.496 818 243.996C773.5 155.496 745.5 59.496 699 34.996L697.243 34.0701C651.652 10.0383 618.463 -7.45599 576.5 34.996C534 77.9913 524 107.996 508.5 175.996C493 243.996 508.5 293.5 549.5 325.496C590.5 357.492 619.5 377.492 656.5 406.996C693.5 436.5 795.5 556 707.5 659.996C619.5 763.992 378.5 1006.5 328.5 1017C278.5 1027.49 184 987.996 70.5 987.996C-43 987.996 17 1203 129.5 1178.5C242 1154 436 1070 481.5 1078C527 1086 552.5 1107.5 576.5 1100Z" stroke="#FF0909" stroke-width="18"/>
</svg>
