<svg width="1592" height="621" viewBox="0 0 1592 621" fill="none" xmlns="http://www.w3.org/2000/svg">
<path d="M1065.5 225.5L685.5 401C655.422 418.845 640.275 418.327 616.5 397.5C421.5 226.679 163.292 251.401 15.9999 535.5C-5.00006 585.5 25.5 607 80.5 608.5L1368 611.5C1438.5 604.5 1461 579 1473.5 528L1582 80C1586 24 1540 7.5 1503 35.5L1377.5 164C1362.5 183 1359 199.5 1360.5 224L1376.5 409C1379.5 452.5 1363 463.5 1330.5 468H1167.5C1120 456 1094 413.5 1110.5 371.5C1110.5 371.5 1274 133 1293.5 99.5C1313 66 1283 23.5 1252.5 19C1222 14.5 824.5 9 824.5 9C794.5 11 778.5 3 735.5 27.5L546.5 114C485 159 519.5 253 587 253L739.5 261.5C774.575 259.93 789.372 254.575 806.5 236.5L888 147.5C912.315 123.679 929 119.5 964.5 121L1037 124C1101 131 1122 190 1065.5 225.5Z" stroke="#FF0909" stroke-width="18"/>
</svg>
