<svg width="1546" height="1041" viewBox="0 0 1546 1041" fill="none" xmlns="http://www.w3.org/2000/svg">
<path d="M112 1023C112 1023 1282.5 1034.5 1312.5 1030.5C1342.5 1026.5 1363.65 1007 1367 968.502C1370.35 930.002 1326.5 909.002 1312.5 906.502C1298.5 904.002 1187.5 894.502 1140.5 897.502C1093.5 900.502 797.5 924.502 797.5 924.502C797.5 924.502 737.5 924.502 739 879.002C740.5 833.502 788.5 811.002 788.5 811.002C788.5 811.002 872.5 767.502 936.5 763.502C1000.5 759.502 1386 817.002 1452 795.002C1518 773.002 1548.29 713.502 1531.5 670.002C1514.71 626.502 1477.5 617.502 1452 620.502C1426.5 623.502 1163 688.002 1116 679.002C1069 670.002 992 537.502 973 519.502C954 501.502 890 416.497 814.5 422.003C739 427.508 692.5 570.002 692.5 570.002C670.568 613.106 653.532 632.887 615 660.502L460 745.002C460 745.002 384 776.502 348 750.002C312 723.502 316 683.502 316 683.502C316 683.502 311.417 643.002 324.5 564.502C337.583 486.002 411.5 293.002 591.5 217.002C591.5 217.002 729.5 130.504 639 40.5026C548.5 -49.4992 361 77.0051 275.5 157.503C190 238 177 405.502 174 460.001C171 514.5 215.5 533 225 551C234.5 569 273.5 827.5 235.5 849.002C197.5 870.505 116 818.502 116 818.502C116 818.502 79 801.005 56.5 812.502C34 824 -4.5 873.502 14 923C32.5 972.498 44 1019 112 1023Z" stroke="#FF0909" stroke-width="18"/>
</svg>
